<svg xmlns="http://www.w3.org/2000/svg" width="35" height="39"><svg width="35" height="39" viewBox="0 0 35 39" fill="none" xmlns="http://www.w3.org/2000/svg"><path d="m14.65 23.004-1.809.857 3.737-.296.712-.561-.208-.355-2.432.355z" fill="#ACD2B4"/><path d="m20.967 33.057 1.78.828v.532l-1.217-.503-.148.266 1.127.562.474 1.153-1.127-.946h-.237l.238 2.898-1.424-1.656-.119-1.685.653-1.45z" fill="#3A3A3A"/><path d="m18.595 32.82 2.046 1.981v1.36l-1.839.77-1.127-2.011v-5.884l.475-.917.178.148.267 4.553z" fill="#8FC19A"/><path d="m23.191 28.06 1.78.828v.562l-1.187-.533-.148.266 1.067.533.505 1.212-1.068-.976h-.237l.207 2.868-1.542-1.774-.059-1.33.682-1.656z" fill="#3A3A3A"/><path d="m21.679 29.183 1.067.71v1.094l-2.965 1.124-1.038-2.188-.237-1.42.682-.443 2.016-.118.475 1.241z" fill="#678A6F"/><path d="m15.006 27.498 3.796-2.543-2.936-.769-5.575 5.53v3.607l1.394 4.76V35.57l3.321-8.072zm13.167-3.223c-.059 0-3.588.887-3.588.887l-3.5 2.898h-1.897l5.783-3.785h3.202z" fill="#3A3A3A"/><path d="m32.889 21.821 1.423 2.277-1.69.887-6.287-2.572-.148-1.745 3.5.236 3.202.917z" fill="#79A281"/><path d="m32.86 23.595-.564.414-.06-.089.623-.473.89.503-.06.118-.83-.473z" fill="#3A3A3A"/><path d="m19.04 18.125 6.731 1.686v3.873l-2.58-.976-5.041-2.572.89-2.01z" fill="#8FC19A"/><path d="m27.432 18.805-3.025-2.986.089-2.78 2.936 5.766z" fill="#7AA383"/><path d="m26.335 19.929-1.81-7.747L10.262 0l2.106 5.795 8.303 7.984 5.665 6.15z" fill="#CCE2D2"/><path d="m10.054 5.943 5.19 5.914 5.427 1.921L9.579 3.075l.475 2.868z" fill="#ACD2B4"/><path d="m2.847 12.36 5.783 1.567 4.686 4.612-4.982-1.478-1.305-.887-4.182-3.815z" fill="#393839"/><path d="m18.12 21.319-.119.975-5.546-.503-4.389-2.365L18.12 21.32z" fill="#ACD2B4"/><path d="m16.518 23.359-2.224-.207-3.41-1.094 7.325.266 7.147.591.83 1.538-1.779-.326-3.885-.354-2.817-1.065-1.187.65z" fill="#678A6F"/><path d="m5.368 16.114 12.159 3.697 5.664 2.897-5.19-.414-6.613-1.98-6.02-4.2z" fill="#CCE1D1"/><path d="m4.152 12.004 4.893 3.755 4.27 2.78 4.835 1.597.89-2.011L.77 7.215l3.38 4.79z" fill="#78A381"/><path d="m0 3.075 5.308 7.244 13.731 7.806 7.296 1.804-5.665-6.15L0 3.074z" fill="#393839"/><path d="M25.771 23.654V19.81l.564.119v.118l3.351.857-2.906.414 2.313.976-2.313.06 3.647 1.448 2.195 1.183.119.502-3.47-1.212h-3.084l-.416-.62z" fill="#CCE1D1"/><path d="m34.312 26.079-.89.769h-.919l.416-.71-.297-1.153 1.69-.887v1.98z" fill="#3A3A3A"/><path d="m14.65 33.234.653.828-.149.207L15.63 39l-3.025-5.736 2.58-6.091 5.338-3.4 4.449.473v.03l-7.296 4.76-.623-.917-2.402 5.115z" fill="#CDE3D2"/><path d="M20.522 23.773 10.29 30.159l-2.224 2.632.771-2.868 2.313-3.164 6.554-4.05 2.818 1.064z" fill="#8FC19A"/><path d="M17.675 29.036v7.185l.92 2.276-3.945-5.263 2.403-5.115.622.917z" fill="#78A381"/><path d="M7.622 28.326v1.005l1.898-2.543-1.898 1.538z" fill="#3A3A3A"/><path d="m9.579 34.86.326 1.982-.712-.444v-2.454l.386.916z" fill="#678A6F"/></svg><style>@media (prefers-color-scheme:light){:root{filter:none}}</style></svg>